<svg width="198" height="66" viewBox="0 0 198 66" fill="none" xmlns="http://www.w3.org/2000/svg">
<path d="M70.6259 39.2783V25.882H67.7472L63.4574 33.1823V25.882H60.1647V39.2783H63.0434L67.3333 31.9781V39.2783H70.6259ZM83.4238 39.2783V25.882H80.1311V31.0373H76.6315V25.882H73.3389V39.2783H76.6315V33.9725H80.1311V39.2783H83.4238ZM95.2149 28.8172V25.882H85.337V28.8172H88.6296V39.2783H91.9223V28.8172H95.2149ZM106.24 39.2783V36.3432H100.426V33.9913H105.393V31.0562H100.426V28.8172H106.24V25.882H97.1333V39.2783H106.24ZM118.458 30.1907C118.458 27.6883 116.539 25.882 113.886 25.882H108.58V39.2783H111.873V34.4993H113.886C116.558 34.4993 118.458 32.6931 118.458 30.1907ZM115.166 30.1907C115.166 30.9621 114.563 31.5454 113.736 31.5454H111.873V28.836H113.736C114.563 28.836 115.166 29.4193 115.166 30.1907ZM130.461 39.2783V25.882H127.169V31.0373H123.669V25.882H120.376V39.2783H123.669V33.9725H127.169V39.2783H130.461ZM142.271 39.2783V36.3432H136.457V33.9913H141.425V31.0562H136.457V28.8172H142.271V25.882H133.165V39.2783H142.271ZM153.699 28.8172V25.882H143.822V28.8172H147.114V39.2783H150.407V28.8172H153.699ZM63.4574 58.2783V51.2603L67.4085 58.2783H71.2844L66.9005 51.1098L70.8517 44.882H67.0698L63.4574 51.2227V44.882H60.1647V58.2783H63.4574ZM81.8545 50.3948C81.8545 48.4569 81.4405 47.2527 80.4998 46.2743C79.5214 45.2583 78.2796 44.7691 76.7368 44.7691C75.2128 44.7691 73.971 45.2583 73.0114 46.2743C71.9578 47.3656 71.6567 48.4945 71.6567 51.1098V52.0882C71.6567 53.7251 71.6756 55.4937 73.0114 56.886C73.9898 57.902 75.2128 58.3912 76.7744 58.3912C78.2984 58.3912 79.5402 57.902 80.4998 56.886C81.798 55.5313 81.8545 53.8568 81.8545 52.1258V50.3948ZM78.5619 51.9377C78.5619 53.6498 78.4301 54.4024 78.0727 54.854C77.7716 55.2303 77.2824 55.4561 76.7556 55.4561C76.2288 55.4561 75.7396 55.2303 75.4386 54.854C75.0811 54.4024 74.9494 53.6498 74.9494 51.9377V51.0157C74.9494 49.7551 75.0811 48.7579 75.4386 48.2875C75.7396 47.9112 76.21 47.7043 76.7556 47.7043C77.3012 47.7043 77.7716 47.9112 78.0727 48.2875C78.4301 48.7579 78.5619 49.7551 78.5619 51.0157V51.9377ZM94.2093 58.2783V44.882H90.9167V50.0373H87.4171V44.882H84.1245V58.2783H87.4171V52.9725H90.9167V58.2783H94.2093ZM105.229 48.4193C106.941 48.551 107.675 49.2283 107.675 51.2227C107.675 53.1042 106.941 53.8756 105.229 54.0449V48.4193ZM102.049 54.0449C100.337 53.8756 99.6034 53.1042 99.6034 51.2227C99.6034 49.2283 100.337 48.551 102.049 48.4193V54.0449ZM105.285 58.3912V56.7919C109.387 56.6226 110.968 54.4401 110.968 51.0722C110.968 47.7419 109.086 45.7663 105.285 45.597V44.2047H101.993V45.597C98.1922 45.7663 96.3107 47.7419 96.3107 51.0722C96.3107 54.4401 97.8912 56.6226 101.993 56.7919V58.3912H105.285ZM122.188 58.2783V55.3432H116.375V52.9913H121.342V50.0562H116.375V47.8172H122.188V44.882H113.082V58.2783H122.188ZM134.407 49.1907C134.407 46.6883 132.488 44.882 129.835 44.882H124.529V58.2783H127.822V53.4993H129.835C132.507 53.4993 134.407 51.6931 134.407 49.1907ZM131.114 49.1907C131.114 49.9621 130.512 50.5454 129.684 50.5454H127.822V47.836H129.684C130.512 47.836 131.114 48.4193 131.114 49.1907ZM145.432 58.2783V55.3432H139.618V52.9913H144.585V50.0562H139.618V47.8172H145.432V44.882H136.325V58.2783H145.432ZM157.857 58.2783V44.882H154.564V50.0373H151.065V44.882H147.772V58.2783H151.065V52.9725H154.564V58.2783H157.857ZM172.169 60.9877V55.3432H170.645V44.882H167.353V55.3432H163.853V44.882H160.56V58.2783H169.008V60.9877H172.169ZM184.343 58.2783V44.882H181.464L177.174 52.1823V44.882H173.882V58.2783H176.76L181.05 50.9781V58.2783H184.343ZM191.929 53.4993H193.265V58.2783H196.557V44.882H191.252C188.599 44.882 186.68 46.5378 186.68 49.1907C186.68 50.7523 187.432 52.0506 188.655 52.8032L186.077 58.2783H189.991L191.929 53.4993ZM193.265 50.5454H191.364C190.537 50.5454 189.935 49.9056 189.935 49.1342C189.935 48.3628 190.537 47.7607 191.364 47.7607H193.265V50.5454Z" fill="white"/>
<path d="M65.7905 15.9212H64.4718C64.2662 16.7923 63.6734 17.3971 62.7176 17.3971C62.2095 17.3971 61.7498 17.2036 61.4474 16.8769C61.024 16.4172 60.9272 15.9212 60.9272 14.1912C60.9272 12.4613 61.024 11.9653 61.4474 11.5055C61.7498 11.1789 62.2095 10.9853 62.7176 10.9853C63.6734 10.9853 64.2541 11.5902 64.4597 12.4613H65.7905C65.488 10.7434 64.3024 9.81185 62.7176 9.81185C61.8224 9.81185 61.0481 10.1385 60.4554 10.7313C59.6085 11.5781 59.6206 12.5338 59.6206 14.1912C59.6206 15.8486 59.6085 16.8044 60.4554 17.6512C61.0481 18.244 61.8224 18.5706 62.7176 18.5706C64.2782 18.5706 65.5001 17.6391 65.7905 15.9212ZM73.6225 18.498L70.4771 9.88444H69.4246L66.2671 18.498H67.6462L68.2511 16.7681H71.6506L72.2555 18.498H73.6225ZM71.2998 15.6551H68.6262L69.9811 11.8322L71.2998 15.6551ZM80.9659 18.498V9.88444H79.6472V13.5743H76.1631V9.88444H74.8565V18.498H76.1631V14.7356H79.6472V18.498H80.9659ZM84.552 18.498V13.9977L88.0241 18.498H89.6815L86.0642 13.9493L89.379 9.88444H87.77L84.552 13.9735V9.88444H83.2455V18.498H84.552ZM96.0452 11.0579V9.88444H89.9963V11.0579H92.3675V18.498H93.674V11.0579H96.0452ZM100.025 15.7156V14.5663H96.4928V15.7156H100.025ZM108.056 18.498V9.88444H101.958V18.498H103.265V11.0579H106.749V18.498H108.056ZM115.828 18.498V17.3246H111.618V14.7356H115.199V13.5743H111.618V11.0579H115.828V9.88444H110.311V18.498H115.828ZM122.887 11.0579V9.88444H116.838V11.0579H119.209V18.498H120.516V11.0579H122.887ZM129.887 18.498V17.3246H125.677V14.7356H129.257V13.5743H125.677V11.0579H129.887V9.88444H124.37V18.498H129.887ZM137.684 12.4976C137.684 10.949 136.559 9.88444 134.926 9.88444H131.659V18.498H132.966V15.1107H134.926C136.559 15.1107 137.684 14.0461 137.684 12.4976ZM136.377 12.4976C136.377 13.3807 135.785 13.9372 134.841 13.9372H132.966V11.0579H134.841C135.785 11.0579 136.377 11.6023 136.377 12.4976ZM145.341 15.8849C145.341 14.3364 144.288 13.2718 142.619 13.2718H140.574V11.0579H144.808V9.88444H139.268V18.498H142.619C144.3 18.498 145.341 17.4334 145.341 15.8849ZM144.034 15.8849C144.034 16.7802 143.478 17.3246 142.534 17.3246H140.574V14.4453H142.534C143.478 14.4453 144.034 15.0018 144.034 15.8849ZM152.82 9.88444H151.441L149.59 14.4937L147.534 9.88444H146.155L148.949 15.9333L148.647 16.635C148.453 17.0947 148.163 17.3246 147.643 17.3246H147.026V18.498H147.921C148.852 18.498 149.397 17.8811 149.736 17.0947L152.82 9.88444ZM160.048 12.4976C160.048 10.949 158.923 9.88444 157.29 9.88444H154.024V18.498H155.33V15.1107H157.29C158.923 15.1107 160.048 14.0461 160.048 12.4976ZM158.742 12.4976C158.742 13.3807 158.149 13.9372 157.205 13.9372H155.33V11.0579H157.205C158.149 11.0579 158.742 11.6023 158.742 12.4976ZM166.991 11.0579V9.88444H161.693V18.498H162.999V11.0579H166.991ZM174.328 15.9212H173.009C172.803 16.7923 172.211 17.3971 171.255 17.3971C170.747 17.3971 170.287 17.2036 169.985 16.8769C169.561 16.4172 169.464 15.9212 169.464 14.1912C169.464 12.4613 169.561 11.9653 169.985 11.5055C170.287 11.1789 170.747 10.9853 171.255 10.9853C172.211 10.9853 172.791 11.5902 172.997 12.4613H174.328C174.025 10.7434 172.84 9.81185 171.255 9.81185C170.36 9.81185 169.585 10.1385 168.993 10.7313C168.146 11.5781 168.158 12.5338 168.158 14.1912C168.158 15.8486 168.146 16.8044 168.993 17.6512C169.585 18.244 170.36 18.5706 171.255 18.5706C172.816 18.5706 174.037 17.6391 174.328 15.9212ZM177.412 18.498V13.9977L180.884 18.498H182.541L178.924 13.9493L182.239 9.88444H180.63L177.412 13.9735V9.88444H176.105V18.498H177.412ZM189.945 18.498L186.8 9.88444H185.747L182.59 18.498H183.969L184.574 16.7681H187.973L188.578 18.498H189.945ZM187.623 15.6551H184.949L186.304 11.8322L187.623 15.6551ZM193.805 15.1107H195.51V18.498H196.829V9.88444H193.551C191.917 9.88444 190.804 10.9006 190.804 12.4976C190.804 13.6589 191.446 14.5179 192.462 14.8687L190.587 18.498H192.135L193.805 15.1107ZM195.51 13.9372H193.635C192.692 13.9372 192.111 13.3686 192.111 12.4855C192.111 11.5902 192.692 11.0458 193.635 11.0458H195.51V13.9372Z" fill="white"/>
<path d="M46.6223 24.2851L23.3111 0.998047V19.1102L46.6223 42.3972V24.2851Z" fill="white"/>
<path d="M23.3113 47.5966L46.6225 24.3096V42.4217L23.3113 65.7087V47.5966Z" fill="white"/>
<path d="M23.3113 47.5966L9.15527e-05 24.3096V42.4217L23.3113 65.7087V47.5966Z" fill="white"/>
<path d="M0 24.2851L23.3112 0.998047V19.1102L0 42.3972V24.2851Z" fill="white"/>
</svg>
