<svg width="80" height="301" viewBox="0 0 80 301" fill="none" xmlns="http://www.w3.org/2000/svg">
<g clip-path="url(#clip0)">
<path d="M90.3999 -99.2L-9.6001 0.80005" stroke="white" stroke-width="1.6"/>
<path d="M90.3999 104L-9.6001 204" stroke="white" stroke-width="1.6"/>
<path d="M90.3999 -80.8L-9.6001 19.2" stroke="white" stroke-width="1.6"/>
<path d="M90.3999 122.4L-9.6001 222.4" stroke="white" stroke-width="1.6"/>
<path d="M90.3999 -62.4L-9.6001 37.6" stroke="white" stroke-width="1.6"/>
<path d="M90.3999 140.8L-9.6001 240.8" stroke="white" stroke-width="1.6"/>
<path d="M90.3999 -44L-9.6001 56" stroke="white" stroke-width="1.6"/>
<path d="M90.3999 159.2L-9.6001 259.2" stroke="white" stroke-width="1.6"/>
<path d="M90.3999 -25.6L-9.6001 74.4" stroke="white" stroke-width="1.6"/>
<path d="M90.3999 177.6L-9.6001 277.6" stroke="white" stroke-width="1.6"/>
<path d="M90.3999 -7.19995L-9.6001 92.8001" stroke="white" stroke-width="1.6"/>
<path d="M90.3999 196L-9.6001 296" stroke="white" stroke-width="1.6"/>
<path d="M90.3999 11.2L-9.6001 111.2" stroke="white" stroke-width="1.6"/>
<path d="M90.3999 214.4L-9.6001 314.4" stroke="white" stroke-width="1.6"/>
<path d="M90.3999 29.6L-9.6001 129.6" stroke="white" stroke-width="1.6"/>
<path d="M90.3999 232.8L-9.6001 332.8" stroke="white" stroke-width="1.6"/>
<path d="M90.3999 48L-9.6001 148" stroke="white" stroke-width="1.6"/>
<path d="M90.3999 251.2L-9.6001 351.2" stroke="white" stroke-width="1.6"/>
<path d="M90.3999 66.4L-9.6001 166.4" stroke="white" stroke-width="1.6"/>
<path d="M90.3999 269.6L-9.6001 369.6" stroke="white" stroke-width="1.6"/>
<path d="M90.3999 84.8L-9.6001 184.8" stroke="white" stroke-width="1.6"/>
<path d="M90.3999 288L-9.6001 388" stroke="white" stroke-width="1.6"/>
</g>
<defs>
<clipPath id="clip0">
<rect width="80" height="300.8" fill="white"/>
</clipPath>
</defs>
</svg>
