<svg width="134" height="38" viewBox="0 0 134 38" fill="none" xmlns="http://www.w3.org/2000/svg">
<path d="M20.7981 19.8262C18.7056 19.8262 16.9937 21.5419 16.9937 23.6389C16.9937 25.7359 18.7056 27.4516 20.7981 27.4516C22.8905 27.4516 24.6025 25.7359 24.6025 23.6389C24.6025 21.5419 22.8905 19.8262 20.7981 19.8262ZM20.9249 23.4482C20.6078 23.2576 21.3053 20.7793 21.3053 20.7793C21.3053 20.7793 22.5101 20.97 23.1441 22.1138C23.1441 22.1138 21.3053 23.6389 20.9249 23.4482Z" fill="#A3A3A3"/>
<path d="M16.8032 22.4313C17.0568 21.5416 17.6275 20.8426 18.325 20.2707C18.1347 20.1436 17.9445 20.0801 17.6909 20.0801C16.9934 20.0801 16.3594 20.652 16.3594 21.4145C16.3594 21.8594 16.4862 22.1771 16.8032 22.4313Z" fill="#A3A3A3"/>
<path d="M20.7978 27.8332C20.354 27.8332 19.9101 27.7697 19.4663 27.6426C19.5297 28.278 20.1004 28.7864 20.7978 28.7864C21.4953 28.7864 22.0026 28.278 22.1294 27.6426C21.6855 27.7697 21.2417 27.8332 20.7978 27.8332Z" fill="#A3A3A3"/>
<path d="M24.792 22.4313C25.0456 22.1771 25.2359 21.8594 25.2359 21.4145C25.2359 20.7156 24.6652 20.0801 23.9043 20.0801C23.7141 20.0801 23.4605 20.1436 23.2703 20.2072C24.0311 20.8426 24.5384 21.6052 24.792 22.4313Z" fill="#A3A3A3"/>
<path d="M25.1098 21.1602L24.6025 20.4613L25.4268 20.1436L25.6804 20.4613L25.1098 21.1602Z" fill="#A3A3A3"/>
<path d="M16.93 20.3977L16.4227 21.0967L15.8521 20.4613L16.1057 20.1436L16.93 20.3977Z" fill="#A3A3A3"/>
<path d="M20.3533 28.7227H21.1776L20.9239 29.5487H20.5435L20.3533 28.7227Z" fill="#A3A3A3"/>
<path d="M24.9825 24.2744C24.7923 25.4817 24.0948 26.562 23.0803 27.1975C24.9825 29.0403 27.8358 31.2008 30.3721 32.9801C31.8304 31.5186 32.9084 29.6757 33.5424 27.7059C30.7525 26.4349 27.5188 25.1005 24.9825 24.2744Z" fill="#A3A3A3"/>
<path d="M37.2201 29.612C36.8396 29.4214 36.4592 29.1672 36.0153 28.9766C35.2545 31.0736 34.1132 32.9799 32.6548 34.5685C33.0986 34.8227 33.5425 35.0769 33.9229 35.3311C37.7908 37.5552 40.327 37.3646 41.2781 35.7759C42.4194 33.8696 41.7219 32.2174 37.2201 29.612Z" fill="#A3A3A3"/>
<path d="M18.388 27.1341C17.3735 26.4352 16.676 25.3549 16.5493 24.084C13.6325 24.9736 9.7013 26.6258 6.72119 28.1509C7.41869 30.2479 8.4966 32.0907 9.95497 33.6793C12.8082 31.8365 16.1688 29.2311 18.388 27.1341Z" fill="#A3A3A3"/>
<path d="M5.4531 28.8496C5.07264 29.0403 4.69223 29.2309 4.37519 29.4215C0.507376 31.7092 -0.633946 33.9968 0.317155 35.5854C1.20485 37.174 3.80453 37.3647 7.67234 35.1406C7.98938 34.95 8.36983 34.6958 8.75025 34.5051C7.29193 32.853 6.1506 30.9466 5.4531 28.8496Z" fill="#A3A3A3"/>
<path d="M20.7973 7.43479C21.9386 7.43479 23.1433 7.56186 24.2212 7.81604C24.2212 7.37126 24.2212 6.98996 24.2212 6.60871C24.2212 2.09699 22.7629 0 20.9241 0C19.0853 0 17.627 2.09699 17.627 6.60871C17.627 6.98996 17.627 7.37126 17.627 7.75251C18.6414 7.56186 19.7194 7.43479 20.7973 7.43479Z" fill="#A3A3A3"/>
<path d="M20.7976 8.13379C19.7197 8.13379 18.7052 8.2609 17.6907 8.45151C17.6907 8.89634 17.7541 9.34117 17.7541 9.84954C18.7686 9.84954 20.1635 9.91307 21.178 10.2943C20.1001 10.5485 18.832 10.8662 17.8175 11.184C18.0711 14.1071 18.515 17.3479 19.0856 19.8261C19.5929 19.5719 20.1635 19.4448 20.7976 19.4448C21.4951 19.4448 22.1291 19.6355 22.6998 19.8896C23.4607 16.6488 23.9679 11.9465 24.1582 8.57862C23.0803 8.2609 21.9389 8.13379 20.7976 8.13379Z" fill="#A3A3A3"/>
<path d="M30.9429 33.4241C30.9429 33.4241 32.7817 32.0897 33.7962 30.4375C32.7817 32.4074 32.0842 34.1231 32.0842 34.1231L30.9429 33.4241Z" fill="#A3A3A3"/>
<path d="M40.2002 15.5683H44.8923V28.7856H51.55V15.5683H56.2423V10.2305H40.2002V15.5683Z" fill="#A3A3A3"/>
<path d="M117.493 10.2305V15.5683H122.186V28.7856H128.78V15.5683H133.536V10.2305H117.493Z" fill="#A3A3A3"/>
<path d="M81.7317 10.2305H75.0107V28.7221H81.7317V10.2305Z" fill="#A3A3A3"/>
<path d="M109.884 21.6051H114.893V17.7923H109.884V15.5683H115.718V10.2305H103.861V28.7856H116.351V23.7656H109.884V21.6051Z" fill="#A3A3A3"/>
<path d="M95.5545 16.4579L95.7448 19.9529L90.0382 10.2305H83.5076V28.7856H89.9117V22.1134L89.7214 19.1904L95.428 28.7856H101.959V10.2305H95.5545V16.4579Z" fill="#A3A3A3"/>
<path d="M71.0795 21.478C72.4112 20.2706 73.1086 18.7455 73.1086 16.9662C73.1086 14.6151 72.4744 12.8994 71.1428 11.8191C69.8745 10.7388 67.9091 10.2305 65.3729 10.2305H57.6372V28.7221H63.7877V25.799L63.5341 22.8759L64.1683 23.9562L67.0214 28.7221H73.6158L69.8745 22.304C70.3183 22.1134 70.6989 21.7957 71.0795 21.478ZM65.8801 18.9997H63.7877V14.9328H65.753C67.0847 14.9328 67.7821 15.6318 67.7821 16.9662C67.7188 18.3642 67.1484 18.9997 65.8801 18.9997Z" fill="#A3A3A3"/>
<path d="M60.9978 32.2178H62.6463L63.2167 35.395L64.1045 32.2178H65.7529L66.6407 35.395L67.2116 32.2178H68.8601L67.5917 37.8733H65.9432L64.9289 34.3148L63.9142 37.8733H62.2024L60.9978 32.2178Z" fill="#A3A3A3"/>
<path d="M69.4944 32.2178H74.1867V33.4252H71.2699V34.3148H73.9964V35.4586H71.2699V36.6024H74.3133V37.8733H69.5581V32.2178H69.4944Z" fill="#A3A3A3"/>
<path d="M75.2004 32.2178H78.4974C79.0683 32.2178 79.4489 32.3449 79.7657 32.5991C80.0826 32.8533 80.2096 33.2345 80.2096 33.6158C80.2096 33.9335 80.0826 34.2512 79.8928 34.5054C79.7657 34.6961 79.5754 34.8231 79.2586 34.8867C79.6387 35.0138 79.956 35.1409 80.1463 35.395C80.3362 35.6492 80.4632 35.9034 80.4632 36.2847C80.4632 36.6024 80.3999 36.8566 80.2729 37.0472C80.1463 37.3014 79.956 37.492 79.7025 37.6191C79.5754 37.6827 79.3219 37.7462 79.0683 37.8098C78.6877 37.8733 78.4341 37.8733 78.3076 37.8733H75.2637V32.2178H75.2004ZM76.9759 34.4419H77.7367C77.9902 34.4419 78.1805 34.3783 78.3076 34.3148C78.4341 34.2512 78.4974 34.0606 78.4974 33.9335C78.4974 33.7429 78.4341 33.6158 78.3076 33.5522C78.1805 33.4887 77.9902 33.4252 77.7367 33.4252H76.9759V34.4419ZM76.9759 36.666H77.8637C78.1805 36.666 78.3708 36.6024 78.4974 36.4753C78.6244 36.3482 78.6877 36.2211 78.6877 36.0305C78.6877 35.8399 78.6244 35.7128 78.4974 35.6492C78.3708 35.5222 78.1805 35.5222 77.8637 35.5222H76.9759V36.666Z" fill="#A3A3A3"/>
<path d="M84.0142 32.2178H88.3259V33.4252H85.726V34.4419H87.9453V35.5857H85.726V37.8733H83.9509V32.2178H84.0142Z" fill="#A3A3A3"/>
<path d="M92.0041 36.9836H90.0383L89.7848 37.9368H88.0093L90.1654 32.2812H92.0674L94.2231 37.9368H92.3843L92.0041 36.9836ZM91.6868 35.7127L91.0531 33.6792L90.4189 35.7127H91.6868Z" fill="#A3A3A3"/>
<path d="M98.3438 35.5858L99.8657 36.0306C99.7387 36.4754 99.6122 36.7932 99.3586 37.1109C99.1683 37.4286 98.8514 37.6193 98.5341 37.7463C98.2173 37.8735 97.7734 37.937 97.2662 37.937C96.6321 37.937 96.1249 37.8735 95.7443 37.6828C95.3637 37.4922 95.0469 37.1744 94.7295 36.7296C94.476 36.2848 94.2861 35.7129 94.2861 35.0139C94.2861 34.0607 94.5397 33.3617 95.0469 32.8534C95.554 32.345 96.2515 32.0908 97.1392 32.0908C97.8367 32.0908 98.4076 32.2179 98.8514 32.5357C99.2316 32.8534 99.5489 33.2982 99.7387 33.8701L98.2173 34.1878C98.1535 33.9972 98.0902 33.8701 98.027 33.8065C97.8999 33.6795 97.8367 33.5523 97.6464 33.4888C97.5198 33.4253 97.3295 33.3617 97.1392 33.3617C96.7586 33.3617 96.4418 33.4888 96.2515 33.8701C96.0612 34.1243 95.9979 34.5055 95.9979 35.0139C95.9979 35.6493 96.1249 36.0942 96.3147 36.2848C96.505 36.539 96.7586 36.6661 97.1392 36.6661C97.4561 36.6661 97.7101 36.6025 97.8999 36.4119C98.1535 36.2212 98.2805 35.9035 98.3438 35.5858Z" fill="#A3A3A3"/>
<path d="M104.431 32.2169H106.207V35.5848C106.207 35.9025 106.143 36.2202 106.08 36.538C105.953 36.8557 105.827 37.1099 105.573 37.3005C105.319 37.5547 105.129 37.6818 104.875 37.7453C104.558 37.8724 104.114 37.9359 103.67 37.9359C103.417 37.9359 103.1 37.9359 102.783 37.8724C102.466 37.8089 102.212 37.7453 101.959 37.6182C101.768 37.4911 101.515 37.364 101.388 37.1099C101.198 36.9192 101.071 36.665 101.007 36.4744C100.881 36.0931 100.817 35.7754 100.817 35.5212V32.1533H102.592V35.5848C102.592 35.9025 102.656 36.1567 102.846 36.2838C103.036 36.4744 103.227 36.538 103.544 36.538C103.861 36.538 104.051 36.4744 104.241 36.2838C104.431 36.0931 104.495 35.8389 104.495 35.5848V32.2169H104.431Z" fill="#A3A3A3"/>
<path d="M107.285 32.2178H109.06V36.4753H111.787V37.8733H107.285V32.2178Z" fill="#A3A3A3"/>
<path d="M111.787 32.2178H117.113V33.6158H115.337V37.8733H113.562V33.6158H111.787V32.2178Z" fill="#A3A3A3"/>
<path d="M117.874 32.2178H122.565V33.4252H119.649V34.3148H122.376V35.4586H119.649V36.6024H122.692V37.8733H117.937V32.2178H117.874Z" fill="#A3A3A3"/>
<path d="M123.199 32.2178H128.526V33.6158H126.75V37.8733H124.975V33.6158H123.199V32.2178Z" fill="#A3A3A3"/>
</svg>
