<svg width="62" height="62" viewBox="0 0 62 62" fill="none" xmlns="http://www.w3.org/2000/svg">
<path d="M31 0.375C14.0879 0.375 0.375 14.0879 0.375 31C0.375 47.9121 14.0879 61.625 31 61.625C47.9121 61.625 61.625 47.9121 61.625 31C61.625 14.0879 47.9121 0.375 31 0.375ZM40.8506 31.4717L25.9209 42.334C25.8391 42.3928 25.7426 42.4279 25.6421 42.4355C25.5416 42.443 25.4409 42.4227 25.3512 42.3768C25.2615 42.3309 25.1861 42.2611 25.1335 42.1752C25.0808 42.0892 25.0529 41.9904 25.0527 41.8896V20.1787C25.0524 20.0777 25.08 19.9786 25.1326 19.8924C25.1851 19.8061 25.2605 19.7361 25.3504 19.6901C25.4403 19.6441 25.5412 19.6239 25.6419 19.6317C25.7426 19.6395 25.8392 19.675 25.9209 19.7344L40.8506 30.5898C40.9211 30.6397 40.9787 30.7058 41.0184 30.7825C41.0581 30.8592 41.0788 30.9444 41.0788 31.0308C41.0788 31.1172 41.0581 31.2023 41.0184 31.279C40.9787 31.3557 40.9211 31.4218 40.8506 31.4717Z" fill="white"/>
</svg>
