<svg width="696" height="555" viewBox="0 0 696 555" fill="none" xmlns="http://www.w3.org/2000/svg">
<path d="M354.308 555V440.797H155.225L286.403 301.902C330.387 255.604 354.308 224.738 354.308 166.865C354.308 63.4657 280.23 0.962866 178.374 0.962866C82.6907 0.962866 0.896891 60.3791 0.896891 168.409H127.446C127.446 125.968 155.225 115.165 178.374 115.165C210.783 115.165 227.759 136 227.759 166.094C227.759 189.243 220.042 203.132 199.98 224.738L0.896891 440.797V555H354.308ZM702.058 555V5.59273H575.509L458.22 107.449V242.486L575.509 140.63V555H702.058Z" fill="white"/>
</svg>
