<?xml version="1.0" encoding="utf-8"?><svg xmlns="http://www.w3.org/2000/svg" xmlns:xlink="http://www.w3.org/1999/xlink"><symbol viewBox="0 0 14 27" id="chevron-left" xmlns="http://www.w3.org/2000/svg"><path d="M13.5 1L1 13.5 13.5 26"/></symbol><symbol viewBox="0 0 15 27" id="chevron-right" xmlns="http://www.w3.org/2000/svg"><path d="M1 1l12.5 12.5L1 26"/></symbol><symbol viewBox="0 0 16 16" id="user" xmlns="http://www.w3.org/2000/svg"><g clip-path="url(#cclip0)"><path d="M7.999 0a4.165 4.165 0 014.154 4.154A4.165 4.165 0 018 8.308a4.165 4.165 0 01-4.154-4.154A4.165 4.165 0 017.999 0zM.87 11.628a3.85 3.85 0 01.417-.762c.834-1.233 2.122-2.05 3.573-2.25a.765.765 0 01.527.128 4.37 4.37 0 002.612.852c.943 0 1.85-.29 2.612-.852a.68.68 0 01.526-.127 5.126 5.126 0 013.574 2.25c.163.235.308.507.417.761a.386.386 0 01-.018.345 7.224 7.224 0 01-.49.725 6.9 6.9 0 01-.834.944c-.254.254-.545.49-.835.725A8.219 8.219 0 018.017 16a8.219 8.219 0 01-4.934-1.633 7.985 7.985 0 01-.835-.725c-.29-.29-.58-.599-.834-.944a6.363 6.363 0 01-.49-.725c-.09-.109-.109-.236-.054-.345z"/></g><defs><clipPath id="cclip0"><path transform="matrix(-1 0 0 1 16 0)" d="M0 0h16v16H0z"/></clipPath></defs></symbol></svg>