<?xml version="1.0" encoding="utf-8"?><svg xmlns="http://www.w3.org/2000/svg" xmlns:xlink="http://www.w3.org/1999/xlink"><symbol viewBox="0 0 22 30" id="arrow-top" xmlns="http://www.w3.org/2000/svg"><path d="M11 1.5l-10 10m10-10v28m0-28l10 10"/></symbol><symbol viewBox="0 0 14 27" id="chevron-left" xmlns="http://www.w3.org/2000/svg"><path d="M13.5 1L1 13.5 13.5 26"/></symbol><symbol viewBox="0 0 15 27" id="chevron-right" xmlns="http://www.w3.org/2000/svg"><path d="M1 1l12.5 12.5L1 26"/></symbol><symbol viewBox="0 0 17 24" id="chevron-right-bold" xmlns="http://www.w3.org/2000/svg"><path d="M3 3l9 9-9 9"/></symbol><symbol viewBox="0 0 32 32" id="facebook" xmlns="http://www.w3.org/2000/svg"><path d="M17.863 27.996V17.068h3.686l.548-4.278h-4.235v-2.726c0-1.234.345-2.08 2.117-2.08h2.245V4.17a29.78 29.78 0 00-3.29-.17c-3.258 0-5.496 1.99-5.496 5.642v3.14H9.776v4.278h3.67v10.936h4.417z"/></symbol><symbol viewBox="0 0 16 16" id="user" xmlns="http://www.w3.org/2000/svg"><g clip-path="url(#fclip0)"><path d="M7.999 0a4.165 4.165 0 014.154 4.154A4.165 4.165 0 018 8.308a4.165 4.165 0 01-4.154-4.154A4.165 4.165 0 017.999 0zM.87 11.628a3.85 3.85 0 01.417-.762c.834-1.233 2.122-2.05 3.573-2.25a.765.765 0 01.527.128 4.37 4.37 0 002.612.852c.943 0 1.85-.29 2.612-.852a.68.68 0 01.526-.127 5.126 5.126 0 013.574 2.25c.163.235.308.507.417.761a.386.386 0 01-.018.345 7.224 7.224 0 01-.49.725 6.9 6.9 0 01-.834.944c-.254.254-.545.49-.835.725A8.219 8.219 0 018.017 16a8.219 8.219 0 01-4.934-1.633 7.985 7.985 0 01-.835-.725c-.29-.29-.58-.599-.834-.944a6.363 6.363 0 01-.49-.725c-.09-.109-.109-.236-.054-.345z"/></g><defs><clipPath id="fclip0"><path transform="matrix(-1 0 0 1 16 0)" d="M0 0h16v16H0z"/></clipPath></defs></symbol><symbol viewBox="0 0 28 16" id="vk" xmlns="http://www.w3.org/2000/svg"><path d="M26.772 1.14c.187-.62 0-1.075-.883-1.075h-2.924c-.744 0-1.084.394-1.27.826 0 0-1.487 3.625-3.594 5.976-.68.684-.99.9-1.36.9-.186 0-.456-.216-.456-.836V1.14c0-.745-.214-1.076-.834-1.076h-4.595c-.464 0-.744.344-.744.672 0 .704 1.053.867 1.161 2.851v4.304c0 .943-.169 1.115-.542 1.115-.99 0-3.402-3.639-4.832-7.804C5.62.393 5.339.067 4.592.067H1.67C.833.067.667.46.667.892c0 .776.99 4.616 4.614 9.695 2.416 3.468 5.818 5.348 8.916 5.348 1.858 0 2.087-.418 2.087-1.138v-2.62c0-.836.177-1.004.765-1.004.432 0 1.176.22 2.911 1.89 1.981 1.981 2.31 2.87 3.423 2.87h2.922c.835 0 1.252-.417 1.012-1.24-.262-.82-1.209-2.014-2.465-3.426-.683-.806-1.703-1.672-2.013-2.106-.434-.558-.308-.805 0-1.3.001 0 3.562-5.016 3.933-6.72z"/></symbol></svg>