<svg width="16" height="16" viewBox="0 0 16 16" fill="none" xmlns="http://www.w3.org/2000/svg">
<g clip-path="url(#clip0)">
<path d="M7.99888 0C10.2846 0 12.1531 1.86847 12.1531 4.1542C12.1531 6.43993 10.2846 8.3084 7.99888 8.3084C5.71315 8.3084 3.84468 6.43993 3.84468 4.1542C3.84468 1.86847 5.71315 0 7.99888 0Z" fill="white"/>
<path d="M0.86956 11.6281C0.978415 11.356 1.12352 11.1021 1.28678 10.8662C2.12126 9.63266 3.40921 8.81634 4.86046 8.61679C5.04185 8.59866 5.2414 8.63491 5.38654 8.74377C6.14845 9.30613 7.05546 9.59637 7.9988 9.59637C8.94213 9.59637 9.84914 9.30613 10.6111 8.74377C10.7562 8.63491 10.9557 8.5805 11.1371 8.61679C12.5884 8.81634 13.8945 9.63266 14.7108 10.8662C14.8741 11.1021 15.0192 11.3742 15.128 11.6281C15.1824 11.737 15.1643 11.864 15.1099 11.9728C14.9648 12.2268 14.7834 12.4808 14.6201 12.6985C14.3662 13.0431 14.094 13.3515 13.7856 13.6418C13.5317 13.8957 13.2414 14.1316 12.9512 14.3674C11.5181 15.4377 9.7947 16 8.01692 16C6.23914 16 4.51578 15.4377 3.08269 14.3674C2.79244 14.1497 2.5022 13.8957 2.24821 13.6418C1.95796 13.3515 1.66772 13.0431 1.41373 12.6985C1.23234 12.4626 1.06904 12.2268 0.923936 11.9728C0.833277 11.864 0.815151 11.737 0.86956 11.6281Z" fill="white"/>
</g>
<defs>
<clipPath id="clip0">
<rect width="16" height="16" fill="white" transform="matrix(-1 0 0 1 16 0)"/>
</clipPath>
</defs>
</svg>
