<svg width="28" height="16" viewBox="0 0 28 16" fill="none" xmlns="http://www.w3.org/2000/svg">
<path d="M26.7721 1.1401C26.9587 0.520097 26.7721 0.0654297 25.8894 0.0654297H22.9654C22.2214 0.0654297 21.8814 0.458764 21.6947 0.890764C21.6947 0.890764 20.2081 4.5161 18.1014 6.86676C17.4214 7.55076 17.1107 7.76676 16.7401 7.76676C16.5547 7.76676 16.2854 7.55076 16.2854 6.93076V1.1401C16.2854 0.396097 16.0707 0.0654297 15.4507 0.0654297H10.8561C10.3921 0.0654297 10.1121 0.40943 10.1121 0.73743C10.1121 1.44143 11.1654 1.6041 11.2734 3.5881V7.8921C11.2734 8.83476 11.1041 9.00676 10.7307 9.00676C9.74008 9.00676 7.32941 5.3681 5.89875 1.20276C5.62008 0.39343 5.33875 0.0667636 4.59208 0.0667636H1.66941C0.833415 0.0667636 0.666748 0.460097 0.666748 0.892097C0.666748 1.6681 1.65741 5.5081 5.28141 10.5868C7.69741 14.0548 11.0987 15.9348 14.1974 15.9348C16.0547 15.9348 16.2841 15.5174 16.2841 14.7974V12.1761C16.2841 11.3414 16.4614 11.1734 17.0494 11.1734C17.4814 11.1734 18.2254 11.3921 19.9601 13.0628C21.9414 15.0441 22.2694 15.9334 23.3827 15.9334H26.3054C27.1401 15.9334 27.5574 15.5161 27.3174 14.6921C27.0547 13.8721 26.1081 12.6788 24.8521 11.2668C24.1694 10.4614 23.1494 9.59476 22.8387 9.16143C22.4054 8.60277 22.5307 8.3561 22.8387 7.8601C22.8401 7.86143 26.4014 2.84543 26.7721 1.1401Z" fill="white"/>
</svg>
